<svg xmlns="http://www.w3.org/2000/svg" viewBox="0 0 541.71 782.05"><defs><style>.cls-1{fill:#0d1620;fill-rule:evenodd;}</style></defs><g id="Layer_2" data-name="Layer 2"><g id="Layer_1-2" data-name="Layer 1"><polygon class="cls-1" points="0 671.48 64.77 708.87 88.12 695.39 292.31 577.52 292.31 536.91 292.31 496.3 88.12 376 88.12 221.47 149.67 185.94 149.67 269.4 149.67 340.47 149.67 341.19 274.35 413.16 357.07 460.92 357.07 473.32 357.07 615.44 292.31 652.82 129.99 746.52 191.54 782.05 292.31 723.88 418.61 650.97 418.61 650.91 480.16 615.38 541.71 579.86 541.71 354.32 337.52 236.44 337.52 225.23 480.16 142.88 539.65 110.25 475.45 73.18 275.97 188.33 275.97 228.94 275.97 269.55 480.16 389.85 480.16 544.32 418.61 579.86 418.61 496.44 418.61 437.79 418.61 425.38 418.61 424.66 293.94 352.69 211.21 304.94 211.21 292.53 211.21 150.41 275.97 113.03 410.22 35.53 348.67 0 275.97 41.97 149.67 114.88 88.12 150.41 88.12 150.02 26.57 185.55 26.57 411.53 230.77 529.41 230.77 540.62 88.12 622.97 0 671.48"/></g></g></svg>